<svg id="er8ieHIa2jt1" xmlns="http://www.w3.org/2000/svg" xmlns:xlink="http://www.w3.org/1999/xlink" viewBox="0 0 792 612" shape-rendering="geometricPrecision" text-rendering="geometricPrecision" project-id="5228dd243e0747618d678c4b3e11e7d0" export-id="4619b59607af41958a5ee979932be1b0" cached="false" style="background-color:#fff"><rect width="435.900609" height="448.663464" rx="49" ry="49" transform="matrix(1 0 0 0.986872 175.761722 83.774522)" stroke-width="0"/><path style="mix-blend-mode:screen" d="M531.103033,199.193515v50.5048q-28.949759,3.647603-69.897053-21.532629q0,0-1.240182,116.229993-19.799125,74.887423-92.328881,78.46914c.298476,1.193906-88.647479.596953-92.527672-93.721577-.249259.459622-1.737672-50.444093,39.640201-76.640156.893048,0,25.160785-20.820072,66.240975-15.461787q-.893048,1.19073,0,52.217056-35.599801-9.602916-53.289052,25.239548c.804057.804057-13.936985,28.410009,19.565384,52.799734c0,0,46.926126,22.152193,63.231801-31.309034q-.801918-.267306,0-207.240184h49.426345q-1.024787,23.181807,20.188495,47.563307c-.275497-.550994,16.299658,22.621816,50.989639,22.881789Z" transform="translate(0-.051932)" fill="#ff0040" stroke-width="1.584"/><path style="mix-blend-mode:screen" d="M531.103033,199.193515v50.5048q-28.949759,3.647603-69.897053-21.532629q0,0-1.240182,116.229993-19.799125,74.887423-92.328881,78.46914c.298476,1.193906-88.647479.596953-92.527672-93.721577-.249259.459622-1.737672-50.444093,39.640201-76.640156.893048,0,25.160785-20.820072,66.240975-15.461787q-.893048,1.19073,0,52.217056-35.599801-9.602916-53.289052,25.239548c.804057.804057-13.936985,28.410009,19.565384,52.799734c0,0,46.926126,22.152193,63.231801-31.309034q-.801918-.267306,0-207.240184h49.426345q-1.024787,23.181807,20.188495,47.563307c-.275497-.550994,16.299658,22.621816,50.989639,22.881789Z" transform="translate(-15.691147-12.299485)" fill="#0ef" stroke-width="1.584"/><path d="M274.117577,448.175688v47.615212q13.724384-.280089,13.724384,0t0-47.801938h12.604027l4.193159-12.992732h-45.597799v12.62994h14.95162l.124609.549518Z" fill="#fff" stroke-width="1.584"/><path d="M274.117577,448.175688v47.615212q13.724384-.280089,13.724384,0t0-47.801938h12.604027l4.193159-12.992732h-45.597799v12.62994h14.95162l.124609.549518Z" transform="translate(120.282188 0)" fill="#fff" stroke-width="1.584"/><path d="M306.992137,454.495064h15.108952v41.365364h-15.016825l-.092127-41.365364Z" fill="#fff" stroke-width="1.584"/><ellipse rx="7.416285" ry="7.416285" transform="translate(314.316294 441.919625)" fill="#fff" stroke-width="0"/><path d="M327.206616,434.968893v60.708865h14.833148v-15.291907l4.281734-4.128816q14.221472,19.726557,14.374391,19.726557t16.515258,0l-21.102829-29.666298l17.279853-17.585693h-18.197368L342.80436,461.5768l-.152916-26.607917-15.444828.00001Z" transform="translate(1 0.000012)" fill="#fff" stroke-width="1.584"/><path d="M424.951907,470.477578c0-13.9532,9.207893-25.077298,23.161093-25.077298s25.26451,11.31131,25.26451,25.26451-11.31131,25.26451-25.26451,25.26451-23.161093-11.498522-23.161093-25.451722Zm22.813226,15.199467c6.17857,0,11.535157-8.833695,11.535157-15.012265s-5.356588-14.311959-11.535158-14.311959-17.494816,6.871478-17.494816,13.050048s11.316247,16.274176,17.494817,16.274176Z" transform="matrix(1.096968 0 0 1-41.149671-.15353)" fill="#ed1e53" stroke-width="0"/><path d="M424.951907,470.477578c0-13.9532,9.207893-25.077298,23.161093-25.077298s25.26451,11.31131,25.26451,25.26451-11.31131,25.26451-25.26451,25.26451-23.161093-11.498522-23.161093-25.451722Zm22.813226,15.199467c6.17857,0,11.535157-8.833695,11.535157-15.012265s-5.356588-14.311959-11.535158-14.311959-17.494816,6.871478-17.494816,13.050048s11.316247,16.274176,17.494817,16.274176Z" transform="matrix(-1.096968 0 0 1 938.450382-.15353)" fill="#6bd0d6" stroke-width="0"/><path d="M327.206616,434.968893v60.708865h14.833148v-15.291907l4.281734-4.128816q14.221472,19.726557,14.374391,19.726557t16.515258,0l-21.102829-29.666298l17.279853-17.585693h-18.197368L342.80436,461.5768l-.152916-26.607917-15.444828.00001Z" transform="translate(154.453263 0.000012)" fill="#fff" stroke-width="1.584"/><path d="M422.84849,470.66479c0-13.9532,11.31131-25.26451,25.26451-25.26451s25.26451,11.31131,25.26451,25.26451-11.31131,25.26451-25.26451,25.26451-25.26451-11.31131-25.26451-25.26451ZM448.113,481.85207c6.17857,0,11.18729-5.00872,11.18729-11.18729s-5.00872-11.18729-11.18729-11.18729-11.18729,5.00872-11.18729,11.18729s5.00872,11.18729,11.18729,11.18729Z" fill="#fff" stroke-width="0"/></svg>
